<mxfile host="65bd71144e">
    <diagram id="ksJ8OBkkBK5ntvKOhaUa" name="Page-1">
        <mxGraphModel dx="508" dy="436" grid="1" gridSize="10" guides="1" tooltips="1" connect="1" arrows="1" fold="1" page="1" pageScale="1" pageWidth="1169" pageHeight="827" math="0" shadow="0">
            <root>
                <mxCell id="0"/>
                <mxCell id="1" parent="0"/>
                <mxCell id="42" value="Camera &amp;amp; Microphone" style="text;html=1;strokeColor=none;fillColor=none;align=left;verticalAlign=middle;whiteSpace=wrap;rounded=0;" vertex="1" parent="1">
                    <mxGeometry x="720" y="390" width="200" height="20" as="geometry"/>
                </mxCell>
                <mxCell id="47" value="You can change your camera, microphone or mute them using the controls on the preview" style="text;html=1;strokeColor=none;fillColor=none;align=left;verticalAlign=middle;whiteSpace=wrap;rounded=0;textOpacity=60;" vertex="1" parent="1">
                    <mxGeometry x="720" y="410" width="320" height="40" as="geometry"/>
                </mxCell>
                <mxCell id="19" value="You will join the meeting when someone lets you in." style="text;html=1;strokeColor=none;fillColor=none;align=left;verticalAlign=middle;whiteSpace=wrap;rounded=0;" parent="1" vertex="1">
                    <mxGeometry x="717" y="354" width="310" height="20" as="geometry"/>
                </mxCell>
                <mxCell id="31" value="Asking to be let in..." style="text;html=1;strokeColor=none;fillColor=none;align=left;verticalAlign=middle;whiteSpace=wrap;rounded=0;fontSize=20;fontStyle=0" vertex="1" parent="1">
                    <mxGeometry x="753" y="320" width="195" height="30" as="geometry"/>
                </mxCell>
                <mxCell id="33" value="" style="html=1;shadow=0;dashed=0;shape=mxgraph.basic.arc;startAngle=0.25;endAngle=1;strokeWidth=4;strokeColor=#B266FF;" vertex="1" parent="1">
                    <mxGeometry x="722" y="324" width="23" height="23" as="geometry"/>
                </mxCell>
                <mxCell id="35" value="Get Ready" style="text;html=1;strokeColor=none;fillColor=none;align=left;verticalAlign=middle;whiteSpace=wrap;rounded=0;fontSize=28;fontStyle=0" vertex="1" parent="1">
                    <mxGeometry x="120" y="190" width="195" height="30" as="geometry"/>
                </mxCell>
                <mxCell id="36" value="Configure your camera and microphone and make sure you look your best!" style="text;html=1;strokeColor=none;fillColor=none;align=left;verticalAlign=middle;whiteSpace=wrap;rounded=0;" vertex="1" parent="1">
                    <mxGeometry x="120" y="230" width="460" height="20" as="geometry"/>
                </mxCell>
                <mxCell id="37" value="" style="ellipse;whiteSpace=wrap;html=1;aspect=fixed;fontSize=16;fontColor=#B266FF;fillColor=#B266FF;" vertex="1" parent="1">
                    <mxGeometry x="960" y="25" width="40" height="40" as="geometry"/>
                </mxCell>
                <mxCell id="38" value="Username" style="text;html=1;strokeColor=none;fillColor=none;align=left;verticalAlign=middle;whiteSpace=wrap;rounded=0;" vertex="1" parent="1">
                    <mxGeometry x="1020" y="35" width="60" height="20" as="geometry"/>
                </mxCell>
                <mxCell id="39" value="Sign Out" style="text;html=1;strokeColor=none;fillColor=none;align=left;verticalAlign=middle;whiteSpace=wrap;rounded=0;fontColor=#B266FF;" vertex="1" parent="1">
                    <mxGeometry x="1090" y="35" width="50" height="20" as="geometry"/>
                </mxCell>
                <mxCell id="40" value="" style="rounded=0;whiteSpace=wrap;html=1;" vertex="1" parent="1">
                    <mxGeometry x="120" y="270" width="570" height="310" as="geometry"/>
                </mxCell>
                <mxCell id="41" value="Camera is off" style="text;html=1;strokeColor=none;fillColor=none;align=center;verticalAlign=middle;whiteSpace=wrap;rounded=0;fontSize=20;fontStyle=0" vertex="1" parent="1">
                    <mxGeometry x="307.5" y="414" width="195" height="30" as="geometry"/>
                </mxCell>
                <mxCell id="46" value="Cancel" style="rounded=0;whiteSpace=wrap;html=1;" vertex="1" parent="1">
                    <mxGeometry x="720" y="470" width="150" height="40" as="geometry"/>
                </mxCell>
            </root>
        </mxGraphModel>
    </diagram>
</mxfile>